<svg width="20" height="20" viewBox="0 0 20 20" fill="none" xmlns="http://www.w3.org/2000/svg">
<path d="M11.25 12.5C11.6642 12.5 12 12.1642 12 11.75C12 11.3358 11.6642 11 11.25 11H9V12.5H11.25Z" fill="white"/>
<path d="M9 9V7.5H11.25C11.6642 7.5 12 7.83579 12 8.25C12 8.6642 11.6642 9 11.25 9H9Z" fill="white"/>
<path fill-rule="evenodd" clip-rule="evenodd" d="M0 10C0 4.47715 4.47715 0 10 0C15.5228 0 20 4.47715 20 10C20 15.5228 15.5228 20 10 20C4.47715 20 0 15.5228 0 10ZM5.5 5.5V7.5H7V12.5H5.5V14.5H9V16H11V14.5H11.25C12.7688 14.5 14 13.2688 14 11.75C14 11.0852 13.7641 10.4755 13.3714 10C13.7641 9.5245 14 8.9148 14 8.25C14 6.73122 12.7688 5.5 11.25 5.5H11V4H9V5.5H5.5Z" fill="white"/>
</svg>
